<svg xmlns="http://www.w3.org/2000/svg" width="100px" height="100px" viewBox="0 0 100 100">
  <defs>
    <style>
      @import url('https://fonts.googleapis.com/css2?family=Modak&amp;display=swap');
    </style>
  </defs>

  <style>
    .logo-text {
      font-family: Modak, serif;
      fill: #FFFFFF;
    }
  </style>

  <path d="M100,50 L99.997,56.266 L99.988,58.862 L99.972,60.852 L99.951,62.529 L99.923,64.005 L99.889,65.339 L99.849,66.563 L99.802,67.701 L99.75,68.768 L99.691,69.776 L99.626,70.732 L99.555,71.644 L99.478,72.516 L99.394,73.353 L99.304,74.158 L99.208,74.934 L99.106,75.684 L98.997,76.41 L98.882,77.113 L98.761,77.795 L98.633,78.457 L98.5,79.101 L98.359,79.727 L98.212,80.337 L98.059,80.931 L97.9,81.51 L97.734,82.075 L97.561,82.626 L97.382,83.164 L97.197,83.689 L97.004,84.203 L96.806,84.704 L96.6,85.194 L96.388,85.674 L96.169,86.142 L95.944,86.6 L95.711,87.048 L95.472,87.486 L95.226,87.915 L94.973,88.334 L94.713,88.743 L94.445,89.144 L94.171,89.536 L93.889,89.919 L93.601,90.294 L93.304,90.661 L93.001,91.019 L92.69,91.369 L92.371,91.711 L92.045,92.045 L91.711,92.371 L91.369,92.69 L91.019,93.001 L90.661,93.304 L90.294,93.601 L89.919,93.889 L89.536,94.171 L89.144,94.445 L88.743,94.713 L88.334,94.973 L87.915,95.226 L87.486,95.472 L87.048,95.711 L86.6,95.944 L86.142,96.169 L85.674,96.388 L85.194,96.6 L84.704,96.806 L84.203,97.004 L83.689,97.197 L83.164,97.382 L82.626,97.561 L82.075,97.734 L81.51,97.9 L80.931,98.059 L80.337,98.212 L79.727,98.359 L79.101,98.5 L78.457,98.633 L77.795,98.761 L77.113,98.882 L76.41,98.997 L75.684,99.106 L74.934,99.208 L74.158,99.304 L73.353,99.394 L72.516,99.478 L71.644,99.555 L70.732,99.626 L69.776,99.691 L68.768,99.75 L67.701,99.802 L66.563,99.849 L65.339,99.889 L64.005,99.923 L62.529,99.951 L60.852,99.972 L58.862,99.988 L56.266,99.997 L50,100 L43.734,99.997 L41.138,99.988 L39.148,99.972 L37.471,99.951 L35.995,99.923 L34.661,99.889 L33.437,99.849 L32.299,99.802 L31.232,99.75 L30.224,99.691 L29.268,99.626 L28.356,99.555 L27.484,99.478 L26.647,99.394 L25.842,99.304 L25.066,99.208 L24.316,99.106 L23.59,98.997 L22.887,98.882 L22.205,98.761 L21.543,98.633 L20.899,98.5 L20.273,98.359 L19.663,98.212 L19.069,98.059 L18.49,97.9 L17.925,97.734 L17.374,97.561 L16.836,97.382 L16.311,97.197 L15.797,97.004 L15.296,96.806 L14.806,96.6 L14.326,96.388 L13.858,96.169 L13.4,95.944 L12.952,95.711 L12.514,95.472 L12.085,95.226 L11.666,94.973 L11.257,94.713 L10.856,94.445 L10.464,94.171 L10.081,93.889 L9.706,93.601 L9.339,93.304 L8.981,93.001 L8.631,92.69 L8.289,92.371 L7.955,92.045 L7.629,91.711 L7.31,91.369 L6.999,91.019 L6.696,90.661 L6.399,90.294 L6.111,89.919 L5.829,89.536 L5.555,89.144 L5.287,88.743 L5.027,88.334 L4.774,87.915 L4.528,87.486 L4.289,87.048 L4.056,86.6 L3.831,86.142 L3.612,85.674 L3.4,85.194 L3.194,84.704 L2.996,84.203 L2.803,83.689 L2.618,83.164 L2.439,82.626 L2.266,82.075 L2.1,81.51 L1.941,80.931 L1.788,80.337 L1.641,79.727 L1.5,79.101 L1.367,78.457 L1.239,77.795 L1.118,77.113 L1.003,76.41 L0.894,75.684 L0.792,74.934 L0.696,74.158 L0.606,73.353 L0.522,72.516 L0.445,71.644 L0.374,70.732 L0.309,69.776 L0.25,68.768 L0.198,67.701 L0.151,66.563 L0.111,65.339 L0.077,64.005 L0.049,62.529 L0.028,60.852 L0.012,58.862 L0.003,56.266 L0,50 L0.003,43.734 L0.012,41.138 L0.028,39.148 L0.049,37.471 L0.077,35.995 L0.111,34.661 L0.151,33.437 L0.198,32.299 L0.25,31.232 L0.309,30.224 L0.374,29.268 L0.445,28.356 L0.522,27.484 L0.606,26.647 L0.696,25.842 L0.792,25.066 L0.894,24.316 L1.003,23.59 L1.118,22.887 L1.239,22.205 L1.367,21.543 L1.5,20.899 L1.641,20.273 L1.788,19.663 L1.941,19.069 L2.1,18.49 L2.266,17.925 L2.439,17.374 L2.618,16.836 L2.803,16.311 L2.996,15.797 L3.194,15.296 L3.4,14.806 L3.612,14.326 L3.831,13.858 L4.056,13.4 L4.289,12.952 L4.528,12.514 L4.774,12.085 L5.027,11.666 L5.287,11.257 L5.555,10.856 L5.829,10.464 L6.111,10.081 L6.399,9.706 L6.696,9.339 L6.999,8.981 L7.31,8.631 L7.629,8.289 L7.955,7.955 L8.289,7.629 L8.631,7.31 L8.981,6.999 L9.339,6.696 L9.706,6.399 L10.081,6.111 L10.464,5.829 L10.856,5.555 L11.257,5.287 L11.666,5.027 L12.085,4.774 L12.514,4.528 L12.952,4.289 L13.4,4.056 L13.858,3.831 L14.326,3.612 L14.806,3.4 L15.296,3.194 L15.797,2.996 L16.311,2.803 L16.836,2.618 L17.374,2.439 L17.925,2.266 L18.49,2.1 L19.069,1.941 L19.663,1.788 L20.273,1.641 L20.899,1.5 L21.543,1.367 L22.205,1.239 L22.887,1.118 L23.59,1.003 L24.316,0.894 L25.066,0.792 L25.842,0.696 L26.647,0.606 L27.484,0.522 L28.356,0.445 L29.268,0.374 L30.224,0.309 L31.232,0.25 L32.299,0.198 L33.437,0.151 L34.661,0.111 L35.995,0.077 L37.471,0.049 L39.148,0.028 L41.138,0.012 L43.734,0.003 L50,0 L56.266,0.003 L58.862,0.012 L60.852,0.028 L62.529,0.049 L64.005,0.077 L65.339,0.111 L66.563,0.151 L67.701,0.198 L68.768,0.25 L69.776,0.309 L70.732,0.374 L71.644,0.445 L72.516,0.522 L73.353,0.606 L74.158,0.696 L74.934,0.792 L75.684,0.894 L76.41,1.003 L77.113,1.118 L77.795,1.239 L78.457,1.367 L79.101,1.5 L79.727,1.641 L80.337,1.788 L80.931,1.941 L81.51,2.1 L82.075,2.266 L82.626,2.439 L83.164,2.618 L83.689,2.803 L84.203,2.996 L84.704,3.194 L85.194,3.4 L85.674,3.612 L86.142,3.831 L86.6,4.056 L87.048,4.289 L87.486,4.528 L87.915,4.774 L88.334,5.027 L88.743,5.287 L89.144,5.555 L89.536,5.829 L89.919,6.111 L90.294,6.399 L90.661,6.696 L91.019,6.999 L91.369,7.31 L91.711,7.629 L92.045,7.955 L92.371,8.289 L92.69,8.631 L93.001,8.981 L93.304,9.339 L93.601,9.706 L93.889,10.081 L94.171,10.464 L94.445,10.856 L94.713,11.257 L94.973,11.666 L95.226,12.085 L95.472,12.514 L95.711,12.952 L95.944,13.4 L96.169,13.858 L96.388,14.326 L96.6,14.806 L96.806,15.296 L97.004,15.797 L97.197,16.311 L97.382,16.836 L97.561,17.374 L97.734,17.925 L97.9,18.49 L98.059,19.069 L98.212,19.663 L98.359,20.273 L98.5,20.899 L98.633,21.543 L98.761,22.205 L98.882,22.887 L98.997,23.59 L99.106,24.316 L99.208,25.066 L99.304,25.842 L99.394,26.647 L99.478,27.484 L99.555,28.356 L99.626,29.268 L99.691,30.224 L99.75,31.232 L99.802,32.299 L99.849,33.437 L99.889,34.661 L99.923,35.995 L99.951,37.471 L99.972,39.148 L99.988,41.138 L99.997,43.734 L100,50 Z" width="100px" height="100px" fill="#6714F5"/>
  <g class="logo-text"><path d="M26.91 64.24L26.91 25.1Q26.91 23.07 30.18 21.72Q33.44 20.37 37.85 20.37Q40.35 20.37 42.56 20.98Q44.77 21.58 45.94 22.52Q47.54 24.55 48.87 26.66Q50.2 28.77 54.84 36.5Q55.27 36.5 55.63 36.23Q55.98 35.96 55.98 35.39Q55.98 34.82 55 33.18L50.78 25.92L50.78 23.77Q52.77 22.13 55.62 21.23Q58.48 20.33 61.52 20.33Q66.48 20.33 69.53 22.13Q73.09 24.28 73.09 28.85L73.09 65.84Q73.09 69.2 69.88 70.72Q67.15 72.09 62.58 72.09Q60.04 72.09 57.64 71.54Q55.23 71 53.87 70.14Q51.09 66.58 48.36 62.17L44.38 55.53Q43.24 55.68 43.24 56.74Q43.24 57.4 44.38 59.28L49.26 67.17L49.26 69.24Q44.73 72.17 39.04 72.17Q33.36 72.17 30.14 70.1Q26.91 68.03 26.91 64.24Z"/></g>
</svg>